<svg width="64" height="64" viewBox="0 0 64 64" fill="none" xmlns="http://www.w3.org/2000/svg">
<path fill-rule="evenodd" clip-rule="evenodd" d="M48 24C48 29.1833 46.3568 33.9829 43.563 37.9061L62.8284 57.1716C64.3905 58.7337 64.3905 61.2663 62.8284 62.8284C61.2663 64.3905 58.7337 64.3905 57.1716 62.8284L37.9061 43.563C33.9829 46.3568 29.1833 48 24 48C10.7452 48 0 37.2548 0 24C0 10.7452 10.7452 0 24 0C37.2548 0 48 10.7452 48 24ZM24 40C32.8366 40 40 32.8366 40 24C40 15.1634 32.8366 8 24 8C15.1634 8 8 15.1634 8 24C8 32.8366 15.1634 40 24 40Z" fill="white"/>
</svg>
