<svg width="59" height="64" viewBox="0 0 59 64" fill="none" xmlns="http://www.w3.org/2000/svg">
<path d="M31.3842 10.9255C33.8964 8.42613 33.8964 4.37387 31.3842 1.87452C28.872 -0.624839 24.7988 -0.624839 22.2866 1.87452L5.65248 18.4235C-1.88415 25.9216 -1.88417 38.0784 5.65247 45.5764L22.2866 62.1255C24.7988 64.6248 28.872 64.6248 31.3842 62.1255C33.8964 59.6261 33.8964 55.5739 31.3842 53.0745L14.75 36.5255C12.2378 34.0261 12.2378 29.9739 14.75 27.4745L31.3842 10.9255Z" fill="white"/>
<path d="M57.1158 10.9255C59.6281 8.42613 59.6281 4.37387 57.1158 1.87452C54.6036 -0.624839 50.5305 -0.624839 48.0183 1.87452L31.3842 18.4235C23.8475 25.9216 23.8475 38.0784 31.3842 45.5764L48.0183 62.1255C50.5305 64.6248 54.6036 64.6248 57.1158 62.1255C59.6281 59.6261 59.6281 55.5739 57.1158 53.0745L40.4817 36.5255C37.9695 34.0261 37.9695 29.9739 40.4817 27.4745L57.1158 10.9255Z" fill="white"/>
</svg>
