<svg width="64" height="64" viewBox="0 0 64 64" fill="none" xmlns="http://www.w3.org/2000/svg">
<path fill-rule="evenodd" clip-rule="evenodd" d="M26 64C24.8954 64 24 63.1046 24 62V57.4459C22.6293 57.0154 21.3063 56.4772 20.041 55.8412L16.7279 59.1542C15.9469 59.9353 14.6805 59.9353 13.8995 59.1542L5.41421 50.669C4.63316 49.8879 4.63316 48.6216 5.41421 47.8405L8.54903 44.7057C7.74075 43.217 7.0701 41.6428 6.55414 40H2C0.895431 40 0 39.1046 0 38V26C0 24.8954 0.895431 24 2 24H6.55414C7.02744 22.4931 7.6309 21.0438 8.35136 19.6653L5.41395 16.7279C4.6329 15.9469 4.6329 14.6805 5.41395 13.8995L13.8992 5.41422C14.6803 4.63317 15.9466 4.63317 16.7277 5.41422L19.665 8.35154C21.0435 7.63101 22.4929 7.02748 24 6.55414V2C24 0.895427 24.8954 0 26 0H38C39.1046 0 40 0.895431 40 2V6.55414C41.6428 7.07011 43.217 7.74076 44.7057 8.54903L47.8406 5.41412C48.6217 4.63307 49.888 4.63307 50.669 5.41412L59.1543 13.8994C59.9354 14.6804 59.9354 15.9468 59.1543 16.7278L55.8412 20.041C56.4772 21.3063 57.0154 22.6293 57.4459 24H62C63.1046 24 64 24.8954 64 26V38C64 39.1046 63.1046 40 62 40H57.4459C56.9725 41.5071 56.369 42.9565 55.6485 44.335L59.1541 47.8406C59.9351 48.6217 59.9351 49.888 59.1541 50.6691L50.6688 59.1543C49.8877 59.9354 48.6214 59.9354 47.8404 59.1543L44.3347 55.6486C42.9562 56.3691 41.5069 56.9726 40 57.4459V62C40 63.1046 39.1046 64 38 64H26ZM32 40C36.4183 40 40 36.4183 40 32C40 27.5817 36.4183 24 32 24C27.5817 24 24 27.5817 24 32C24 36.4183 27.5817 40 32 40Z" fill="white"/>
</svg>
