<svg width="64" height="64" viewBox="0 0 64 64" fill="none" xmlns="http://www.w3.org/2000/svg">
<path d="M0.00195313 59.9995L0.00195312 3.99951C0.00195312 1.79037 1.79281 -0.000488281 4.00195 -0.000488281L26.002 -0.000488281C28.2111 -0.000488281 30.002 1.79037 30.002 3.99951L30.002 59.9995C30.002 62.2087 28.2111 63.9995 26.002 63.9995H4.00195C1.79282 63.9995 0.00195313 62.2087 0.00195313 59.9995Z" fill="white"/>
<path d="M64.002 37.9995V59.9995C64.002 62.2086 62.2111 63.9995 60.002 63.9995H38.002C35.7928 63.9995 34.002 62.2087 34.002 59.9995V37.9995C34.002 35.7904 35.7928 33.9995 38.002 33.9995H60.002C62.2111 33.9995 64.002 35.7904 64.002 37.9995Z" fill="white"/>
<path d="M64.002 3.99951V25.9995C64.002 28.2087 62.2111 29.9995 60.002 29.9995L38.002 29.9995C35.7928 29.9995 34.002 28.2087 34.002 25.9995V3.99951C34.002 1.79037 35.7928 -0.000488281 38.002 -0.000488281L60.002 -0.000488281C62.2111 -0.000488281 64.002 1.79037 64.002 3.99951Z" fill="white"/>
</svg>
