<svg width="64" height="64" viewBox="0 0 64 64" fill="none" xmlns="http://www.w3.org/2000/svg">
<path d="M0.00195313 55.9995L0.00195312 7.99951C0.00195312 3.58123 3.58368 -0.000488281 8.00195 -0.000488281L22.002 -0.000488281C26.4202 -0.000488281 30.002 3.58123 30.002 7.99951L30.002 55.9995C30.002 60.4178 26.4202 63.9995 22.002 63.9995H8.00195C3.58368 63.9995 0.00195313 60.4178 0.00195313 55.9995Z" fill="white"/>
<path d="M64.002 41.9995V55.9995C64.002 60.4178 60.4202 63.9995 56.002 63.9995H42.002C37.5837 63.9995 34.002 60.4178 34.002 55.9995V41.9995C34.002 37.5812 37.5837 33.9995 42.002 33.9995H56.002C60.4202 33.9995 64.002 37.5812 64.002 41.9995Z" fill="white"/>
<path d="M64.002 7.99951V21.9995C64.002 26.4178 60.4202 29.9995 56.002 29.9995L42.002 29.9995C37.5837 29.9995 34.002 26.4178 34.002 21.9995V7.99951C34.002 3.58123 37.5837 -0.000488281 42.002 -0.000488281L56.002 -0.000488281C60.4202 -0.000488281 64.002 3.58123 64.002 7.99951Z" fill="white"/>
</svg>
