<svg width="70" height="72" viewBox="0 0 70 72" fill="none" xmlns="http://www.w3.org/2000/svg">
<path fill-rule="evenodd" clip-rule="evenodd" d="M31 72C26.5817 72 23 68.4183 23 64V57.2789L16.9279 60.7847C13.1016 62.9938 8.20887 61.6828 5.99973 57.8565L1.99973 50.9283C-0.20941 47.1019 1.10159 42.2092 4.92793 40L11.005 36.4915C11.0036 36.4248 11.0026 36.358 11.0018 36.2912L4.9282 32.7846C1.10186 30.5755 -0.209139 25.6827 2 21.8564L6 14.9282C8.20914 11.1019 13.1019 9.79086 16.9282 12L22.7469 15.3595C22.831 15.3095 22.9153 15.26 23 15.211V8C23 3.58172 26.5817 -3.33786e-06 31 -3.33786e-06H39C43.4183 -3.33786e-06 47 3.58172 47 8V15.2109C47.1431 15.2937 47.2852 15.3779 47.4264 15.4635L53.4254 12C57.2517 9.79091 62.1444 11.1019 64.3536 14.9283L68.3536 21.8565C70.5627 25.6828 69.2517 30.5755 65.4254 32.7847L59.1768 36.3923L65.4256 40C69.252 42.2091 70.563 47.1019 68.3538 50.9282L64.3538 57.8564C62.1447 61.6827 57.252 62.9937 53.4256 60.7846L47 57.0748V64C47 68.4183 43.4183 72 39 72H31ZM35 44C39.4183 44 43 40.4182 43 36C43 31.5817 39.4183 28 35 28C30.5818 28 27 31.5817 27 36C27 40.4182 30.5818 44 35 44Z" fill="white"/>
</svg>
